#!OML:ASF I:\Actors\actors\Patient Classification 1\Patient 1\Session 1\Subject1.ASF
:FULLY-SPECIFIED
:DEGREES
677
root -1.03049 17.7223 8.5561 9.08905 20.3773 -12.4548
lowerback 10.7096 6.73659 9.41046
upperback -9.43537 10.3287 -5.20348
thorax -13.9836 3.57799 -13.3746
lowerneck -11.8363 -14.9113 -13.432
upperneck 10.7424 -21.1137 19.0113
head 8.86654 -9.33223 5.57117
rclavicle 6.98728e-014 9.54166e-015
rhumerus 45.6295 -3.60046 -55.6214
rradius 32.926
rwrist 13.2426
rhand 10.0584 -52.4764
rfingers 7.12502
rthumb 35.1818 281.01
lclavicle 6.98728e-014 9.54166e-015
lhumerus -33.2911 -27.8615 49.0448
lradius 134.789
lwrist -330.471
lhand -3.25982 -27.65
lfingers 7.12502
lthumb 22.4646 1.06344
rfemur -1.30697 21.1453 33.4669
rtibia -0.898171
rfoot -21.4765 -38.2279
rtoes 19.3618
lfemur -12.4945 -30.8159 4.3632
ltibia 2.64183
lfoot -5.18768 24.8978
ltoes -19.3518
678
root -1.02463 17.7073 8.54465 9.21149 20.4872 -12.1309
lowerback 10.7172 6.58156 8.98355
upperback -9.47933 10.0561 -5.08726
thorax -14.205 3.47304 -12.9772
lowerneck -11.668 -14.806 -13.2909
upperneck 10.4614 -20.8946 18.7222
head 8.65039 -9.26989 5.51099
rclavicle 8.05078e-014 -5.40694e-014
rhumerus 43.6616 -2.20031 -56.1786
rradius 36.4958
rwrist 11.0785
rhand 8.7986 -51.8211
rfingers 7.12502
rthumb 33.986 281.392
lclavicle 8.05078e-014 -5.40694e-014
lhumerus -34.8654 -28.1693 51.2256
lradius 134.376
lwrist -331.247
lhand -3.68712 -27.8257
lfingers 7.12502
lthumb 22.0544 0.936672
rfemur -1.23054 21.8878 33.1192
rtibia -1.06418
rfoot -21.9921 -38.9916
rtoes 20.038
lfemur -12.6629 -31.0062 4.08438
ltibia 2.64196
lfoot -5.24196 24.9645
ltoes -18.8764
679
root -1.01755 17.6927 8.53419 9.27086 20.4664 -11.9163
lowerback 10.7477 6.50997 8.75634
upperback -9.55674 9.92424 -5.0881
thorax -14.3893 3.41046 -12.854
lowerneck -11.2222 -14.8977 -13.42
upperneck 9.9477 -21.0432 19.1507
head 8.49942 -9.36299 5.66946
rclavicle -2.64384e-014 -6.36111e-015
rhumerus 41.0272 -1.2541 -57.2557
rradius 40.2546
rwrist 9.96743
rhand 7.61878 -50.7109
rfingers 7.12502
rthumb 32.8645 282.26
lclavicle -2.64384e-014 -6.36111e-015
lhumerus -36.1283 -28.5376 53.2595
lradius 133.587
lwrist -331.996
lhand -4.2362 -27.9412
lfingers 7.12502
lthumb 21.5271 0.882468
rfemur -1.16119 22.6647 32.8982
rtibia -1.12371
rfoot -22.5608 -39.6547
rtoes 20.699
lfemur -12.6585 -31.1514 3.86677
ltibia 2.5248
lfoot -5.29815 25.0996
ltoes -18.178
680
root -1.00622 17.6815 8.52621 9.3843 20.3435 -11.6637
lowerback 10.6377 6.45085 8.52659
upperback -9.62426 9.78786 -5.15376
thorax -14.4617 3.35664 -12.7741
lowerneck -10.7305 -15.1351 -13.9364
upperneck 9.34351 -21.4619 20.2702
head 8.50073 -9.55608 6.05752
rclavicle -1.94809e-014 -9.38264e-014
rhumerus 36.7425 2.63156 -53.6377
rradius 49.4783
rwrist 4.69035
rhand 6.75012 -53.9837
rfingers 7.12502
rthumb 32.0378 278.818
lclavicle -1.94809e-014 -9.38264e-014
lhumerus -37.3528 -28.8138 55.2267
lradius 132.586
lwrist -332.785
lhand -4.99783 -28.1814
lfingers 7.12502
lthumb 20.7955 0.724181
rfemur -1.17684 23.09 32.5918
rtibia -1.10151
rfoot -23.0077 -39.9162
rtoes 21.2297
lfemur -12.5887 -31.2706 3.52715
ltibia 2.41388
lfoot -5.24295 25.3087
ltoes -18.0645
681
root -0.990013 17.6777 8.52167 9.46951 20.1377 -11.3807
lowerback 10.4748 6.36047 8.24024
upperback -9.65383 9.5952 -5.18764
thorax -14.482 3.2919 -12.601
lowerneck -10.5725 -15.1885 -14.0773
upperneck 8.9954 -21.6 20.9432
head 8.49624 -9.60515 6.28137
rclavicle 1.39149e-014 -4.77083e-015
rhumerus 32.7376 5.30839 -53.0477
rradius 57.0523
rwrist 3.32756
rhand 5.14941 -55.1491
rfingers 7.12502
rthumb 30.5125 277.358
lclavicle 1.39149e-014 -4.77083e-015
lhumerus -38.6154 -28.8783 57.1521
lradius 131.479
lwrist -333.55
lhand -5.51919 -28.1777
lfingers 7.12502
lthumb 20.2945 0.782017
rfemur -1.18512 23.0169 32.2293
rtibia -1.01984
rfoot -22.9977 -39.7467
rtoes 21.144
lfemur -12.3617 -31.3052 2.99711
ltibia 2.32716
lfoot -5.08973 25.4695
ltoes -18.4239
